<?xml version="1.0" encoding="utf-8"?>
<svg version="1.1" id="Layer_1" xmlns="http://www.w3.org/2000/svg" xmlns:xlink="http://www.w3.org/1999/xlink" x="0px" y="0px"
	 viewBox="0 0 1564 734.9" enable-background="new 0 0 1564 734.9" xml:space="preserve">
<g>
	<path fill="#3D3D3D" d="M1063.3,506.4l33.2-84h95.9L1147,295l56.9-144L1367,583.9h-120.3l-27.9-77.5L1063.3,506.4L1063.3,506.4z"/>
	<path fill="#5A0FC8" d="M960.8,583.9L1135.3,151h-115.7L900.2,430.8L815.3,151h-89l-91.2,279.8l-64.3-127.5l-58.2,179.3L571.7,584
		h113.9L768,333l78.6,250.9H960.8z"/>
	<path fill="#3D3D3D" d="M326.9,435.3h71.3c21.6,0,40.8-2.4,57.7-7.2l18.4-56.8l51.5-158.7c-3.9-6.2-8.4-12.1-13.4-17.6
		c-26.5-29.3-65.2-43.9-116.1-43.9H217.1V584H327V435.3H326.9z M421.3,250.6c10.3,10.4,15.5,24.3,15.5,41.7
		c0,17.6-4.5,31.5-13.6,41.8c-10,11.4-28.3,17.2-55,17.2H327V235h41.5C393.3,235,410.9,240.2,421.3,250.6z"/>
</g>
</svg>
